<?xml version="1.0" encoding="utf-8"?>
<!-- Generator: Adobe Illustrator 16.0.0, SVG Export Plug-In . SVG Version: 6.00 Build 0)  -->
<!DOCTYPE svg PUBLIC "-//W3C//DTD SVG 1.1//EN" "http://www.w3.org/Graphics/SVG/1.1/DTD/svg11.dtd">
<svg version="1.1" id="night" xmlns="http://www.w3.org/2000/svg" xmlns:xlink="http://www.w3.org/1999/xlink" x="0px" y="0px"
	 width="450px" height="113.149px" viewBox="0 0 450 113.149" enable-background="new 0 0 450 113.149" xml:space="preserve">
<g>
	<path fill="#DFDFDF" d="M249.575,74.864h5.913v1.338h-2.287v7.112h-1.338v-7.112h-2.288V74.864z"/>
	<path fill="#DFDFDF" d="M262.694,75.969c0.829,0.855,1.244,1.897,1.244,3.125c0,1.225-0.415,2.265-1.244,3.12
		s-1.845,1.282-3.048,1.282c-1.203,0-2.219-0.427-3.048-1.282s-1.243-1.895-1.243-3.12c0-1.229,0.414-2.271,1.243-3.125
		s1.845-1.283,3.048-1.283C260.849,74.687,261.865,75.114,262.694,75.969z M259.646,76.019c-0.829,0-1.526,0.292-2.093,0.877
		c-0.574,0.596-0.86,1.329-0.86,2.198s0.287,1.601,0.86,2.193c0.566,0.585,1.264,0.877,2.093,0.877c0.833,0,1.532-0.292,2.099-0.877
		c0.574-0.592,0.86-1.323,0.86-2.193s-0.287-1.603-0.86-2.198C261.178,76.312,260.479,76.019,259.646,76.019z"/>
	<path fill="#DFDFDF" d="M265.892,74.87l1.699,5.213l2.698-5.158l2.676,5.152l1.715-5.207h1.399l-2.837,8.627l-2.959-5.696
		l-2.976,5.696l-2.815-8.627H265.892z"/>
	<path fill="#DFDFDF" d="M277.578,81.754l-0.666,1.56h-1.444l3.67-8.622l3.675,8.622h-1.449l-0.666-1.56H277.578z M280.17,80.51
		l-1.033-2.42l-1.033,2.42H280.17z"/>
	<path fill="#DFDFDF" d="M287.737,83.314l-1.771-2.709h-1.044v2.704h-1.333V74.87h2.721c0.788,0,1.463,0.279,2.026,0.838
		c0.563,0.563,0.844,1.238,0.844,2.026c0,0.792-0.281,1.468-0.844,2.026c-0.27,0.271-0.579,0.478-0.927,0.622l1.915,2.931H287.737z
		 M284.922,76.202v3.07h1.388c0.422,0,0.783-0.152,1.083-0.455c0.303-0.3,0.455-0.661,0.455-1.083c0-0.422-0.152-0.783-0.455-1.083
		c-0.3-0.3-0.661-0.45-1.083-0.45H284.922z"/>
	<path fill="#DFDFDF" d="M292.495,74.87c1.162,0,2.158,0.413,2.987,1.238c0.825,0.825,1.238,1.819,1.238,2.981
		s-0.413,2.156-1.238,2.981c-0.829,0.829-1.825,1.244-2.987,1.244h-2.265V74.87H292.495z M291.562,76.202v5.779h0.933
		c0.796,0,1.477-0.283,2.043-0.849c0.566-0.566,0.85-1.248,0.85-2.043c0-0.792-0.283-1.471-0.85-2.038
		c-0.566-0.566-1.247-0.85-2.043-0.85H291.562z"/>
	<path fill="#DFDFDF" d="M299.362,81.865c0.271,0.2,0.563,0.299,0.877,0.299c0.363,0,0.685-0.129,0.966-0.388
		c0.255-0.241,0.383-0.513,0.383-0.816c0-0.399-0.141-0.696-0.422-0.888c-0.17-0.118-0.483-0.231-0.938-0.338
		c-0.796-0.189-1.342-0.4-1.638-0.633c-0.5-0.388-0.75-1.018-0.75-1.887c0-0.703,0.248-1.303,0.744-1.799
		c0.496-0.496,1.095-0.744,1.798-0.744c0.478,0,0.92,0.126,1.327,0.378c0.407,0.251,0.72,0.59,0.938,1.016l-1.188,0.6
		c-0.104-0.204-0.251-0.364-0.444-0.483c-0.193-0.119-0.404-0.178-0.633-0.178c-0.333,0-0.618,0.119-0.855,0.355
		s-0.355,0.522-0.355,0.855c0,0.399,0.143,0.696,0.427,0.888c0.17,0.119,0.483,0.231,0.938,0.338c0.795,0.189,1.341,0.4,1.638,0.633
		c0.5,0.388,0.75,1.018,0.75,1.887c0,0.692-0.272,1.29-0.816,1.793c-0.537,0.496-1.16,0.744-1.871,0.744
		c-0.611,0-1.168-0.188-1.671-0.566c-0.519-0.385-0.838-0.864-0.96-1.438l1.304-0.278C298.964,81.463,299.114,81.68,299.362,81.865z
		"/>
	<path fill="#DFDFDF" d="M306.663,74.864h5.913v1.338h-2.287v7.112h-1.338v-7.112h-2.288V74.864z"/>
	<path fill="#DFDFDF" d="M314.685,78.423h2.865v1.333h-2.865v2.226h3.542v1.333h-4.875v-8.45h4.875v1.327h-3.542V78.423z"/>
	<path fill="#DFDFDF" d="M324.439,76.213c-0.311-0.122-0.644-0.183-0.999-0.183c-0.837,0-1.543,0.294-2.121,0.883
		c-0.581,0.596-0.872,1.325-0.872,2.187c0,0.863,0.291,1.59,0.872,2.182c0.578,0.588,1.284,0.882,2.121,0.882
		c0.355,0,0.688-0.059,0.999-0.177c0.296-0.115,0.585-0.285,0.866-0.511l0.844,1.032c-0.389,0.318-0.799,0.559-1.232,0.722
		c-0.47,0.178-0.962,0.267-1.477,0.267c-1.207,0-2.229-0.427-3.064-1.282c-0.84-0.855-1.26-1.893-1.26-3.115
		c0-1.221,0.42-2.261,1.26-3.12c0.836-0.855,1.857-1.283,3.064-1.283c0.514,0,1.006,0.089,1.477,0.267
		c0.433,0.167,0.844,0.409,1.232,0.727l-0.844,1.033C325.024,76.495,324.735,76.325,324.439,76.213z"/>
	<path fill="#DFDFDF" d="M334.404,74.87v8.444h-1.338v-3.559h-4.475v3.559h-1.333V74.87h1.333v3.553h4.475V74.87H334.404z"/>
	<path fill="#DFDFDF" d="M335.736,83.314v-8.539l5.924,5.619V74.87h1.333v8.622l-5.924-5.618v5.44H335.736z"/>
	<path fill="#DFDFDF" d="M351.442,75.969c0.829,0.855,1.244,1.897,1.244,3.125c0,1.225-0.415,2.265-1.244,3.12
		s-1.845,1.282-3.048,1.282c-1.203,0-2.219-0.427-3.048-1.282s-1.243-1.895-1.243-3.12c0-1.229,0.414-2.271,1.243-3.125
		s1.845-1.283,3.048-1.283C349.597,74.687,350.613,75.114,351.442,75.969z M348.394,76.019c-0.829,0-1.526,0.292-2.093,0.877
		c-0.574,0.596-0.86,1.329-0.86,2.198s0.287,1.601,0.86,2.193c0.566,0.585,1.264,0.877,2.093,0.877c0.833,0,1.532-0.292,2.099-0.877
		c0.574-0.592,0.86-1.323,0.86-2.193s-0.287-1.603-0.86-2.198C349.926,76.312,349.227,76.019,348.394,76.019z"/>
	<path fill="#DFDFDF" d="M353.795,79.539h2.97v1.332h-2.97V79.539z"/>
	<path fill="#DFDFDF" d="M364.588,74.87v5.385c0,0.896-0.318,1.66-0.955,2.293c-0.633,0.637-1.397,0.955-2.293,0.955
		c-0.892,0-1.654-0.318-2.287-0.955c-0.637-0.633-0.955-1.397-0.955-2.293V74.87h1.333v5.385c0,0.526,0.187,0.977,0.561,1.354
		c0.378,0.374,0.828,0.561,1.349,0.561c0.525,0,0.977-0.187,1.354-0.561c0.374-0.377,0.561-0.829,0.561-1.354V74.87H364.588z"/>
	<path fill="#DFDFDF" d="M365.365,74.864h5.913v1.338h-2.287v7.112h-1.338v-7.112h-2.288V74.864z"/>
	<path fill="#DFDFDF" d="M378.483,75.969c0.829,0.855,1.244,1.897,1.244,3.125c0,1.225-0.415,2.265-1.244,3.12
		s-1.845,1.282-3.048,1.282c-1.203,0-2.219-0.427-3.048-1.282s-1.243-1.895-1.243-3.12c0-1.229,0.414-2.271,1.243-3.125
		s1.845-1.283,3.048-1.283C376.639,74.687,377.654,75.114,378.483,75.969z M375.436,76.019c-0.829,0-1.526,0.292-2.093,0.877
		c-0.574,0.596-0.86,1.329-0.86,2.198s0.287,1.601,0.86,2.193c0.566,0.585,1.264,0.877,2.093,0.877c0.833,0,1.532-0.292,2.099-0.877
		c0.574-0.592,0.86-1.323,0.86-2.193s-0.287-1.603-0.86-2.198C376.968,76.312,376.269,76.019,375.436,76.019z"/>
	<path fill="#DFDFDF" d="M383.397,74.87c0.788,0,1.462,0.279,2.021,0.838c0.563,0.563,0.844,1.238,0.844,2.026
		c0,0.789-0.282,1.462-0.844,2.021c-0.559,0.559-1.232,0.838-2.021,0.838h-1.227v2.72h-1.333V74.87H383.397z M382.17,76.202v3.059
		h1.227c0.422,0,0.783-0.15,1.083-0.45s0.45-0.659,0.45-1.077c0-0.422-0.15-0.783-0.45-1.083s-0.661-0.45-1.083-0.45H382.17z"/>
	<path fill="#DFDFDF" d="M389.104,74.87v8.444h-1.333V74.87H389.104z"/>
	<path fill="#DFDFDF" d="M392.435,81.754l-0.666,1.56h-1.444l3.67-8.622l3.675,8.622h-1.449l-0.666-1.56H392.435z M395.027,80.51
		l-1.032-2.42l-1.032,2.42H395.027z"/>
</g>
<g>
	<g>
		<polygon fill="#DFDFDF" points="38.877,13.401 38.877,67.026 47.877,67.026 47.877,39.664 68.377,68.485 88.877,39.664 
			88.877,67.026 95.877,67.026 95.877,13.401 67.377,54.075 		"/>
		<rect x="100.877" y="26.026" fill="#DFDFDF" width="7" height="41"/>
		<polygon fill="#DFDFDF" points="141.877,53.033 113.877,25.63 113.877,67.026 120.877,67.026 120.877,40.74 149.877,68.143 
			149.877,26.026 141.877,26.026 		"/>
		<path fill="#DFDFDF" d="M163.446,26.026h-10.569v41h10.569c5.667,0,10.524-1.896,14.567-5.941
			c4.026-4.026,6.039-8.809,6.039-14.477s-2.013-10.517-6.039-14.542C173.97,28.041,169.113,26.026,163.446,26.026z M173.41,56.759
			c-2.762,2.761-6.084,4.267-9.964,4.267h-3.569v-29h3.569c3.88,0,7.202,1.662,9.964,4.425c2.763,2.761,4.143,6.278,4.143,10.141
			C177.553,50.472,176.172,53.997,173.41,56.759z"/>
		<path fill="#DFDFDF" d="M214.317,40.874c-1.844-1.452-5.242-2.765-10.195-3.94c-2.833-0.667-4.781-1.37-5.839-2.108
			c-1.775-1.198-2.661-3.041-2.661-5.529c0-2.074,0.737-3.848,2.211-5.322c1.474-1.474,3.249-2.212,5.322-2.212
			c1.428,0,2.741,0.369,3.939,1.106c1.198,0.738,2.119,1.74,2.765,3.006l7.395-3.732c-1.359-2.649-3.306-4.756-5.84-6.323
			c-2.535-1.567-5.287-2.35-8.259-2.35c-4.378,0-8.11,1.544-11.197,4.631c-3.087,3.087-4.63,6.819-4.63,11.197
			c0,5.414,1.555,9.33,4.665,11.75c1.843,1.451,5.241,2.764,10.195,3.939c2.833,0.668,4.78,1.371,5.839,2.108
			c1.751,1.197,2.626,3.041,2.626,5.529c0,1.89-0.794,3.583-2.385,5.08c-1.751,1.613-3.755,2.419-6.013,2.419
			c-1.958,0-3.778-0.622-5.459-1.866c-1.543-1.152-2.477-2.5-2.799-4.043l-8.121,1.728c0.761,3.572,2.752,6.555,5.979,8.951
			c3.132,2.35,6.6,3.525,10.401,3.525c4.424,0,8.306-1.543,11.646-4.631c3.387-3.132,5.081-6.854,5.081-11.162
			C218.983,47.21,217.427,43.293,214.317,40.874z"/>
		<path fill="#DFDFDF" d="M247.487,40.063c0-3.846-1.372-7.171-4.115-9.917c-2.726-2.726-6.012-4.121-9.857-4.121h-12.638v41h6v-13
			h6.638c3.845,0,7.131-1.372,9.857-4.098C246.116,47.203,247.487,43.908,247.487,40.063z M238.795,45.074
			c-1.462,1.462-3.222,1.952-5.28,1.952h-6.638v-15h6.638c2.058,0,3.818,1.012,5.28,2.474c1.462,1.463,2.193,3.243,2.193,5.301
			C240.988,41.841,240.258,43.613,238.795,45.074z"/>
		<path fill="#DFDFDF" d="M242.459,67.026h7.041l3.25-7h15.216l3.25,7h7.067l-17.925-42.051L242.459,67.026z M255.322,53.026
			l5.036-11.806l5.037,11.806H255.322z"/>
		<path fill="#DFDFDF" d="M302.119,49.946c2.744-2.726,4.116-6.02,4.116-9.882c0-3.846-1.372-7.171-4.116-9.917
			c-2.744-2.726-6.038-4.121-9.883-4.121h-13.359v41h7v-13h4.681l8.637,13h7.745l-9.341-14.172
			C299.293,52.15,300.801,51.264,302.119,49.946z M292.236,47.026h-6.359v-15h6.359c2.059,0,3.818,1.012,5.28,2.474
			c1.481,1.463,2.221,3.364,2.221,5.421s-0.74,3.62-2.221,5.082C296.054,46.484,294.294,47.026,292.236,47.026z"/>
		<polygon fill="#DFDFDF" points="338.111,30.074 340.359,43.045 369.195,4.652 344.367,30.59 341.637,17.358 332.909,26.026 
			332.888,26.026 326.306,32.803 325.275,34.026 325.278,34.026 314.877,44.232 314.877,26.026 307.877,26.026 307.877,67.026 
			314.877,67.026 314.877,53.439 318.602,49.523 332.617,67.026 340.93,67.026 323.167,44.894 		"/>
	</g>
	<g>
		<path fill="#DFDFDF" d="M368.816,67.12V32.433l-8.078,4.907l-3.761-5.895l18.786-13.803V67.12H368.816z"/>
		<path fill="#DFDFDF" d="M389,67.12l12.154-41.743h-21.233v-7.122h31.738L396.762,67.12H389z"/>
	</g>
</g>
<g>
	<path fill="#DFDFDF" d="M38.877,97.08l0.157-0.521c0.598-0.426,1.233-0.904,1.906-1.433c0.673-0.529,1.242-1.053,1.707-1.57
		c0.459-0.511,0.831-0.998,1.116-1.461c0.284-0.464,0.426-0.859,0.426-1.186c0-0.263-0.05-0.512-0.15-0.746
		c-0.088-0.226-0.228-0.439-0.42-0.64c-0.189-0.184-0.402-0.325-0.641-0.426c-0.255-0.101-0.506-0.15-0.753-0.15
		c-0.254,0-0.506,0.05-0.752,0.15c-0.238,0.101-0.45,0.242-0.633,0.426h-0.006c-0.196,0.201-0.336,0.415-0.42,0.64
		c-0.05,0.113-0.088,0.232-0.113,0.358h-1.267c0.033-0.289,0.106-0.569,0.219-0.84c0.163-0.393,0.397-0.74,0.703-1.042
		c0.296-0.297,0.644-0.529,1.041-0.695c0.397-0.163,0.809-0.245,1.236-0.245c0.426,0,0.836,0.082,1.229,0.245
		c0.393,0.167,0.741,0.398,1.042,0.695c0.301,0.306,0.533,0.653,0.697,1.042c0.162,0.392,0.244,0.803,0.244,1.229
		c0,0.473-0.13,0.968-0.388,1.487c-0.277,0.552-0.682,1.109-1.217,1.674c-0.276,0.289-0.589,0.594-0.941,0.916
		c-0.351,0.322-0.679,0.606-0.985,0.853H45.4v1.243H38.877z"/>
	<path fill="#DFDFDF" d="M45.94,97.08l0.157-0.521c0.598-0.426,1.232-0.904,1.906-1.433c0.674-0.529,1.243-1.053,1.707-1.57
		c0.46-0.511,0.831-0.998,1.116-1.461c0.284-0.464,0.426-0.859,0.426-1.186c0-0.263-0.05-0.512-0.151-0.746
		c-0.087-0.226-0.227-0.439-0.419-0.64c-0.189-0.184-0.402-0.325-0.64-0.426c-0.255-0.101-0.506-0.15-0.752-0.15
		c-0.255,0-0.506,0.05-0.752,0.15c-0.238,0.101-0.45,0.242-0.633,0.426h-0.007c-0.196,0.201-0.336,0.415-0.419,0.64
		c-0.051,0.113-0.088,0.232-0.113,0.358h-1.267c0.033-0.289,0.106-0.569,0.219-0.84c0.162-0.393,0.397-0.74,0.702-1.042
		c0.297-0.297,0.644-0.529,1.041-0.695c0.397-0.163,0.809-0.245,1.236-0.245c0.426,0,0.836,0.082,1.229,0.245
		c0.394,0.167,0.741,0.398,1.042,0.695c0.301,0.306,0.532,0.653,0.696,1.042c0.163,0.392,0.244,0.803,0.244,1.229
		c0,0.473-0.129,0.968-0.389,1.487c-0.276,0.552-0.682,1.109-1.216,1.674c-0.276,0.289-0.589,0.594-0.941,0.916
		c-0.351,0.322-0.679,0.606-0.985,0.853h3.488v1.243H45.94z"/>
	<path fill="#DFDFDF" d="M56.659,91.218v-0.646v-3.035h0.726v5.532l-3.54-3.774v0.416v3.274h-0.727v-5.491L56.659,91.218z"/>
	<path fill="#DFDFDF" d="M59.611,87.552c0.34,0.02,0.652,0.088,0.937,0.205c0.335,0.133,0.635,0.331,0.897,0.591l0.004,0.004
		c0.24,0.24,0.42,0.53,0.539,0.869c0.119,0.339,0.179,0.687,0.179,1.045c0,0.36-0.06,0.708-0.179,1.044
		c-0.119,0.337-0.299,0.625-0.539,0.867l-0.004,0.003c-0.258,0.258-0.557,0.454-0.897,0.588c-0.335,0.136-0.699,0.204-1.09,0.204
		h-1.334v-5.419h1.334H59.611z M59.465,92.25c0.29,0,0.554-0.046,0.795-0.136c0.238-0.087,0.451-0.223,0.638-0.408
		c0.182-0.188,0.319-0.402,0.409-0.646c0.09-0.237,0.135-0.504,0.135-0.802c0-0.292-0.045-0.558-0.135-0.799
		s-0.228-0.454-0.413-0.642c-0.182-0.18-0.396-0.318-0.642-0.416c-0.24-0.089-0.506-0.135-0.798-0.135h-0.382h-0.23v0.226v3.531
		v0.227h0.23h0.39H59.465z"/>
	<path fill="#DFDFDF" d="M63.688,95.5c0.289,0.008,0.54,0.117,0.753,0.326c0.213,0.221,0.32,0.474,0.32,0.758v0.025
		c0,0.121-0.009,0.26-0.025,0.415c-0.016,0.154-0.076,0.331-0.175,0.526c-0.13,0.26-0.266,0.46-0.409,0.602
		c-0.196,0.193-0.445,0.344-0.746,0.453c-0.059,0.012-0.144,0.012-0.257,0c0.134-0.109,0.249-0.239,0.345-0.389
		c0.097-0.151,0.113-0.333,0.05-0.546l-0.043-0.151l-0.145-0.043c-0.225-0.063-0.403-0.185-0.533-0.364
		c-0.125-0.156-0.188-0.339-0.188-0.552c0-0.284,0.102-0.533,0.307-0.746c0.206-0.206,0.454-0.307,0.747-0.307V95.5z M62.833,98.572
		H62.83c-0.025-0.042-0.021-0.042,0.012,0H62.833z"/>
	<path fill="#DFDFDF" d="M69.084,97.08l0.157-0.521c0.597-0.426,1.233-0.904,1.906-1.433s1.242-1.053,1.706-1.57
		c0.459-0.511,0.832-0.998,1.116-1.461c0.284-0.464,0.427-0.859,0.427-1.186c0-0.263-0.05-0.512-0.151-0.746
		c-0.088-0.226-0.228-0.439-0.42-0.64c-0.188-0.184-0.401-0.325-0.64-0.426c-0.255-0.101-0.506-0.15-0.753-0.15
		c-0.254,0-0.506,0.05-0.752,0.15c-0.239,0.101-0.449,0.242-0.634,0.426h-0.006c-0.197,0.201-0.337,0.415-0.42,0.64
		c-0.051,0.113-0.087,0.232-0.113,0.358h-1.267c0.033-0.289,0.106-0.569,0.219-0.84c0.163-0.393,0.397-0.74,0.703-1.042
		c0.297-0.297,0.644-0.529,1.041-0.695c0.397-0.163,0.809-0.245,1.235-0.245c0.427,0,0.836,0.082,1.23,0.245
		c0.393,0.167,0.74,0.398,1.041,0.695c0.302,0.306,0.533,0.653,0.697,1.042c0.163,0.392,0.244,0.803,0.244,1.229
		c0,0.473-0.129,0.968-0.389,1.487c-0.276,0.552-0.681,1.109-1.217,1.674c-0.276,0.289-0.589,0.594-0.94,0.916
		c-0.352,0.322-0.68,0.606-0.985,0.853h3.487v1.243H69.084z"/>
	<path fill="#DFDFDF" d="M80.175,89.972c-0.02-0.504-0.26-0.853-0.725-1.045c-0.162-0.063-0.315-0.094-0.458-0.094
		c-0.46,0-0.805,0.197-1.035,0.59l-1.279-0.276c0.042-0.117,0.106-0.249,0.194-0.395c0.151-0.247,0.339-0.458,0.564-0.633
		c0.218-0.18,0.461-0.318,0.728-0.414c0.275-0.092,0.552-0.138,0.828-0.138c0.335,0,0.65,0.06,0.947,0.182
		c0.31,0.137,0.579,0.319,0.809,0.545c0.238,0.247,0.418,0.514,0.539,0.803c0.126,0.313,0.188,0.631,0.188,0.953
		c0,0.271-0.042,0.532-0.126,0.784c-0.079,0.25-0.198,0.484-0.357,0.702l-0.232,0.314c0.234,0.176,0.425,0.342,0.574,0.499
		c0.149,0.156,0.292,0.392,0.43,0.705c0.313,0.748,0.313,1.495,0,2.239c-0.317,0.736-0.861,1.261-1.63,1.574
		c-0.364,0.143-0.744,0.214-1.142,0.214c-0.338,0-0.661-0.05-0.965-0.15c-0.313-0.104-0.604-0.258-0.872-0.458
		c-0.259-0.201-0.483-0.437-0.671-0.709c-0.104-0.155-0.195-0.326-0.27-0.514l1.261-0.326c0.012,0.025,0.024,0.048,0.038,0.069
		l0.037,0.062c0.217,0.318,0.514,0.535,0.89,0.653c0.18,0.058,0.366,0.087,0.559,0.087c0.234,0,0.456-0.042,0.665-0.126
		c0.209-0.08,0.397-0.198,0.564-0.357c0.155-0.142,0.279-0.318,0.37-0.526c0.176-0.406,0.186-0.823,0.032-1.252
		s-0.402-0.775-0.74-1.037c-0.376-0.302-0.847-0.502-1.411-0.603l0.088-0.176c0.451-0.104,0.824-0.281,1.116-0.533
		C80.029,90.879,80.193,90.474,80.175,89.972z"/>
	<path fill="#DFDFDF" d="M82.674,87.548h1.692c0.27,0,0.525,0.047,0.766,0.143c0.228,0.09,0.433,0.219,0.613,0.39
		c0.184,0.187,0.313,0.366,0.386,0.537c0.078,0.177,0.116,0.39,0.116,0.638v0.153c0,0.187-0.028,0.359-0.083,0.518
		c-0.054,0.151-0.137,0.308-0.249,0.471c-0.095,0.131-0.185,0.227-0.27,0.288c-0.08,0.06-0.192,0.119-0.335,0.175l-0.255,0.102
		l0.149,0.233l1.145,1.776h-0.904l-1.236-1.9h-0.802v1.9h-0.73L82.674,87.548z M84.476,90.346l0.003,0.003
		c0.148,0,0.278-0.025,0.39-0.073c0.1-0.046,0.203-0.123,0.31-0.23c0.11-0.109,0.187-0.226,0.233-0.351
		c0.045-0.111,0.069-0.246,0.069-0.404c0-0.144-0.023-0.274-0.069-0.394c-0.044-0.102-0.121-0.212-0.229-0.328v-0.004
		c-0.1-0.097-0.231-0.172-0.395-0.226c-0.153-0.051-0.318-0.077-0.496-0.077h-0.664h-0.226v0.229v1.623v0.227h0.226l0.273,0.004
		h0.183H84.476z"/>
	<path fill="#DFDFDF" d="M88.356,87.551c0.34,0.02,0.652,0.088,0.937,0.205c0.335,0.133,0.635,0.33,0.897,0.591l0.004,0.004
		c0.241,0.24,0.42,0.53,0.539,0.869c0.119,0.339,0.179,0.687,0.179,1.045c0,0.359-0.06,0.708-0.179,1.044
		c-0.119,0.337-0.298,0.625-0.539,0.867L90.19,92.18c-0.258,0.258-0.556,0.454-0.897,0.587c-0.335,0.136-0.698,0.204-1.091,0.204
		h-1.333v-5.419h1.333H88.356z M88.21,92.25c0.289,0,0.555-0.046,0.795-0.136c0.238-0.087,0.451-0.224,0.638-0.408
		c0.182-0.188,0.319-0.402,0.409-0.646c0.089-0.238,0.135-0.504,0.135-0.802c0-0.292-0.045-0.558-0.135-0.799
		c-0.09-0.241-0.228-0.454-0.412-0.642c-0.183-0.18-0.397-0.319-0.642-0.417c-0.241-0.09-0.506-0.134-0.798-0.134h-0.383h-0.229
		v0.226v3.53v0.227h0.229h0.391H88.21z"/>
	<path fill="#DFDFDF" d="M102.116,92.796c-0.021,0.498-0.058,0.884-0.109,1.16c-0.052,0.276-0.195,0.635-0.429,1.079l0.338,0.213
		c0.113,0.075,0.234,0.151,0.363,0.229c0.129,0.078,0.266,0.147,0.408,0.21c0.212,0.092,0.389,0.153,0.527,0.182l-0.007,1.222
		c-0.196-0.024-0.396-0.075-0.602-0.15c-0.26-0.084-0.504-0.195-0.734-0.333c-0.087-0.05-0.113-0.063-0.075-0.04
		c0.038,0.022,0.022,0.013-0.044-0.028c-0.326-0.193-0.587-0.373-0.784-0.541c-0.263,0.314-0.493,0.53-0.689,0.65
		c-0.197,0.12-0.499,0.235-0.909,0.348c-0.452,0.125-0.87,0.188-1.254,0.188c-0.41,0-0.792-0.073-1.148-0.219
		c-0.372-0.146-0.696-0.355-0.972-0.627c-0.289-0.276-0.501-0.582-0.64-0.916c-0.138-0.326-0.207-0.693-0.207-1.098h-0.007
		c0.013-0.49,0.144-0.895,0.392-1.214c0.249-0.32,0.514-0.616,0.794-0.887l0.032-0.032c-0.009,0.009,0.024-0.019,0.099-0.081
		c-0.02,0.021-0.001,0.006,0.057-0.044l0.282-0.238l-0.219-0.295c-0.143-0.192-0.272-0.456-0.389-0.79
		c-0.113-0.317-0.175-0.598-0.188-0.84c0-0.301,0.063-0.578,0.188-0.828c0.109-0.209,0.268-0.416,0.477-0.621
		c0.234-0.235,0.529-0.429,0.885-0.583c0.342-0.151,0.651-0.226,0.928-0.226c0.275,0,0.549,0.048,0.821,0.144
		c0.258,0.097,0.503,0.234,0.733,0.414c0.218,0.18,0.404,0.391,0.559,0.634c0.08,0.138,0.146,0.27,0.201,0.395l-1.279,0.271h-0.006
		c-0.084-0.126-0.172-0.228-0.264-0.307c-0.108-0.088-0.23-0.155-0.363-0.201c-0.134-0.046-0.268-0.069-0.401-0.069
		c-0.297,0-0.55,0.08-0.759,0.239c-0.448,0.343-0.569,0.745-0.363,1.204c0.087,0.205,0.256,0.49,0.504,0.853
		c0.249,0.363,0.446,0.635,0.593,0.815c0.238,0.3,0.528,0.634,0.871,1c0.343,0.366,0.659,0.68,0.948,0.944l0.389,0.352
		c0.154-0.201,0.245-0.401,0.272-0.6c0.027-0.199,0.049-0.492,0.066-0.882v-0.037L102.116,92.796z M99.545,95.722
		c0.171-0.086,0.344-0.254,0.521-0.504c-0.076-0.063-0.173-0.144-0.292-0.242c-0.12-0.098-0.217-0.179-0.292-0.241
		c-0.427-0.365-0.773-0.698-1.039-1.004c-0.265-0.305-0.574-0.689-0.925-1.153l-0.264,0.194l-0.038,0.025
		c-0.217,0.159-0.43,0.349-0.636,0.571c-0.207,0.222-0.305,0.551-0.292,0.991c0,0.213,0.055,0.431,0.163,0.652
		c0.101,0.222,0.237,0.414,0.407,0.577c0.159,0.151,0.364,0.259,0.615,0.326c0.155,0.042,0.393,0.068,0.712,0.082
		c0.32,0.012,0.555-0.005,0.705-0.05C99.156,95.882,99.374,95.807,99.545,95.722z"/>
	<path fill="#DFDFDF" d="M107.533,97.08l0.158-0.521c0.597-0.426,1.232-0.904,1.906-1.433s1.242-1.053,1.706-1.57
		c0.46-0.511,0.832-0.998,1.117-1.461c0.284-0.464,0.426-0.859,0.426-1.186c0-0.263-0.049-0.512-0.15-0.746
		c-0.088-0.226-0.228-0.439-0.42-0.64c-0.189-0.184-0.401-0.325-0.64-0.426c-0.255-0.101-0.506-0.15-0.753-0.15
		c-0.255,0-0.506,0.05-0.752,0.15c-0.238,0.101-0.449,0.242-0.633,0.426h-0.007c-0.196,0.201-0.336,0.415-0.42,0.64
		c-0.05,0.113-0.088,0.232-0.113,0.358h-1.267c0.033-0.289,0.106-0.569,0.219-0.84c0.163-0.393,0.397-0.74,0.704-1.042
		c0.296-0.297,0.644-0.529,1.04-0.695c0.397-0.163,0.809-0.245,1.235-0.245c0.426,0,0.836,0.082,1.229,0.245
		c0.393,0.167,0.74,0.398,1.041,0.695c0.301,0.306,0.533,0.653,0.697,1.042c0.163,0.392,0.244,0.803,0.244,1.229
		c0,0.473-0.13,0.968-0.389,1.487c-0.276,0.552-0.682,1.109-1.217,1.674c-0.276,0.289-0.589,0.594-0.94,0.916
		c-0.352,0.322-0.68,0.606-0.985,0.853h3.487v1.243H107.533z"/>
	<path fill="#DFDFDF" d="M119.1,87.722l-2.578,5.953h0.558h2.164h0.39v-0.396v-3.537h1.241v3.537v0.396h0.396h0.627v1.242h-0.627
		h-0.396v0.389v1.775h-1.241v-1.775v-0.389h-0.39h-4.647l3.136-7.207L119.1,87.722z"/>
	<path fill="#DFDFDF" d="M124.692,87.548h1.217v0.719h-1.217h-0.23v0.226v4.479h-0.726v-4.479v-0.226h-0.23h-1.217v-0.719h1.217
		H124.692z"/>
	<path fill="#DFDFDF" d="M127.15,87.548v2.126v0.227h0.227h1.965h0.226v-0.227v-2.126h0.723v5.423h-0.723v-2.126v-0.226h-0.226
		h-1.965h-0.227v0.226v2.126h-0.722v-5.423H127.15z"/>
	<path fill="#DFDFDF" d="M137.979,95.776c0.186-0.074,0.353-0.17,0.502-0.291c0.149-0.12,0.269-0.268,0.361-0.444
		c0.091-0.176,0.137-0.364,0.137-0.564c0.004-0.167-0.031-0.323-0.104-0.469c-0.073-0.146-0.167-0.269-0.282-0.371
		c-0.114-0.103-0.255-0.198-0.423-0.286c-0.169-0.089-0.33-0.162-0.482-0.217c-0.153-0.055-0.321-0.107-0.506-0.158
		c-0.412-0.115-0.779-0.262-1.101-0.442c-0.321-0.18-0.604-0.417-0.846-0.709c-0.166-0.2-0.293-0.424-0.384-0.673
		c-0.09-0.25-0.136-0.511-0.136-0.782c0-0.366,0.069-0.713,0.208-1.041c0.138-0.327,0.331-0.614,0.578-0.86
		c0.249-0.25,0.539-0.443,0.868-0.581c0.329-0.139,0.676-0.208,1.044-0.208c0.333,0,0.65,0.058,0.952,0.173
		c0.302,0.115,0.574,0.277,0.815,0.486c0.406,0.352,0.681,0.785,0.825,1.302l-1.245,0.263c-0.067-0.192-0.179-0.369-0.336-0.53
		c-0.283-0.279-0.616-0.419-0.999-0.419c-0.19,0-0.372,0.038-0.546,0.111c-0.173,0.074-0.325,0.177-0.456,0.308
		c-0.132,0.133-0.236,0.286-0.311,0.459c-0.075,0.173-0.113,0.354-0.113,0.544c0,0.137,0.021,0.265,0.063,0.385
		c0.041,0.119,0.094,0.222,0.158,0.31c0.063,0.087,0.147,0.17,0.249,0.249c0.101,0.079,0.199,0.144,0.295,0.196
		c0.096,0.051,0.209,0.104,0.341,0.157c0.132,0.053,0.248,0.095,0.343,0.125c0.097,0.031,0.21,0.066,0.342,0.108
		c0.132,0.042,0.232,0.075,0.301,0.099c0.228,0.081,0.445,0.175,0.649,0.285c0.204,0.109,0.401,0.241,0.589,0.394
		c0.189,0.153,0.352,0.319,0.488,0.496c0.136,0.177,0.245,0.379,0.326,0.605s0.122,0.461,0.122,0.707c0,0.368-0.08,0.72-0.239,1.056
		c-0.16,0.336-0.37,0.623-0.631,0.86c-0.262,0.237-0.565,0.426-0.912,0.566c-0.346,0.14-0.7,0.211-1.064,0.211
		c-0.401,0-0.788-0.082-1.162-0.245c-0.375-0.164-0.701-0.395-0.98-0.695c-0.28-0.3-0.48-0.642-0.598-1.024l1.251-0.267
		c0.117,0.28,0.316,0.51,0.598,0.688c0.282,0.178,0.577,0.268,0.885,0.268C137.604,95.896,137.793,95.852,137.979,95.776z"/>
	<path fill="#DFDFDF" d="M146.444,87.736v1.241h-3.669h-0.389v0.389v2.038v0.396h0.389h2.652v1.242h-2.652h-0.389v0.389v2.038v0.395
		h0.389h3.669v1.242h-3.669h-1.638v-9.369H146.444z"/>
	<path fill="#DFDFDF" d="M147.317,94.439v-3.537v-3.148h1.637h1.518c0.439,0,0.843,0.077,1.21,0.232
		c0.364,0.151,0.705,0.382,1.022,0.696c0.31,0.306,0.544,0.644,0.703,1.016c0.15,0.373,0.226,0.776,0.226,1.21
		c0,0.439-0.075,0.843-0.226,1.21c-0.155,0.364-0.387,0.7-0.696,1.01c-0.313,0.31-0.656,0.542-1.028,0.696
		c-0.372,0.151-0.776,0.226-1.21,0.226h-1.518h-0.389v0.389v2.641h-1.249V94.439z M148.566,92.815h0.389l1.518,0.005
		c0.268,0,0.512-0.045,0.734-0.138c0.217-0.087,0.424-0.227,0.621-0.42c0.179-0.188,0.318-0.395,0.414-0.621
		c0.097-0.213,0.145-0.458,0.145-0.734c0-0.267-0.048-0.51-0.145-0.728c-0.083-0.208-0.221-0.415-0.414-0.62
		c-0.184-0.188-0.389-0.33-0.615-0.427c-0.226-0.096-0.472-0.144-0.74-0.144h-1.518h-0.389v0.388v1.524v1.524V92.815z"/>
	<path fill="#DFDFDF" d="M157.636,87.754h2.095v1.236h-2.095h-0.395v0.388v7.702h-1.248v-7.702V88.99h-0.396h-2.094v-1.236h2.094
		H157.636z"/>
	<path fill="#DFDFDF" d="M165.911,87.736v1.241h-3.669h-0.389v0.389v2.038v0.396h0.389h2.653v1.242h-2.653h-0.389v0.389v2.038v0.395
		h0.389h3.669v1.242h-3.669h-1.637v-9.369H165.911z"/>
	<path fill="#DFDFDF" d="M171.344,94.634l4.56-6.98v9.427h-1.248v-5.3l-3.312,5.086l-3.311-5.086v5.3h-1.249v-9.427L171.344,94.634z
		"/>
	<path fill="#DFDFDF" d="M178.876,87.754h0.703c0.318,0,0.629,0.063,0.935,0.188c0.3,0.129,0.564,0.309,0.79,0.539
		c0.222,0.226,0.393,0.475,0.514,0.747c0.118,0.28,0.176,0.581,0.176,0.903c0,0.154-0.031,0.343-0.093,0.564
		c-0.067,0.227-0.159,0.441-0.277,0.646l-0.207,0.37l0.389,0.176c0.129,0.063,0.259,0.134,0.389,0.212
		c0.104,0.072,0.197,0.145,0.276,0.22c0.258,0.272,0.458,0.574,0.596,0.909c0.137,0.327,0.207,0.68,0.207,1.06
		c0,0.385-0.07,0.74-0.207,1.066c-0.138,0.339-0.337,0.64-0.596,0.903c-0.26,0.264-0.56,0.469-0.903,0.615
		c-0.339,0.137-0.691,0.207-1.054,0.207h-1.33h-0.401h-0.32h-1.311v-9.326H178.876z M178.387,91.598l0.408-0.019
		c0.15-0.008,0.355-0.021,0.614-0.038c0.059-0.005,0.111-0.007,0.157-0.007l0.024-0.006c0.196-0.025,0.35-0.062,0.458-0.113
		c0.134-0.063,0.27-0.163,0.407-0.301c0.118-0.125,0.208-0.263,0.27-0.414c0.063-0.15,0.094-0.314,0.094-0.489
		c0-0.172-0.031-0.333-0.094-0.483c-0.063-0.146-0.152-0.284-0.27-0.413c-0.112-0.109-0.246-0.199-0.401-0.271
		c-0.15-0.063-0.309-0.094-0.476-0.094h-0.703h-0.094h-0.395v0.389v1.85V91.598z M178.387,95.888h0.395h0.401h1.33
		c0.196,0,0.396-0.04,0.596-0.119c0.201-0.084,0.37-0.199,0.507-0.345c0.139-0.134,0.254-0.308,0.345-0.521
		c0.079-0.205,0.12-0.41,0.12-0.615c0-0.204-0.041-0.408-0.12-0.608c-0.083-0.2-0.198-0.376-0.345-0.526
		c-0.154-0.151-0.318-0.266-0.495-0.345c-0.192-0.092-0.387-0.145-0.583-0.157c-0.214-0.012-0.417-0.018-0.612-0.016
		c-0.194,0.002-0.39,0.005-0.585,0.009c-0.097,0-0.192,0.001-0.286,0.003c-0.095,0.003-0.186,0.003-0.273,0.003h-0.395v0.389v2.452
		V95.888z"/>
	<path fill="#DFDFDF" d="M189.452,87.736v1.241h-3.669h-0.388v0.389v2.038v0.396h0.388h2.653v1.242h-2.653h-0.388v0.389v2.038v0.395
		h0.388h3.669v1.242h-3.669h-1.636v-9.369H189.452z"/>
	<path fill="#DFDFDF" d="M190.326,87.754h2.91c0.463,0,0.903,0.081,1.318,0.245c0.393,0.155,0.743,0.378,1.053,0.67
		c0.318,0.322,0.54,0.629,0.665,0.922c0.133,0.305,0.2,0.672,0.2,1.098v0.263c0,0.322-0.047,0.619-0.144,0.89
		c-0.092,0.259-0.234,0.529-0.426,0.809c-0.164,0.226-0.318,0.391-0.464,0.495c-0.138,0.105-0.33,0.205-0.577,0.301l-0.439,0.176
		l0.257,0.401l1.969,3.055h-1.555l-2.126-3.268h-1.379v3.268h-1.254L190.326,87.754z M193.424,92.563l0.006,0.007
		c0.255,0,0.479-0.042,0.67-0.126c0.172-0.079,0.35-0.211,0.534-0.395c0.188-0.188,0.322-0.388,0.401-0.602
		c0.079-0.192,0.119-0.424,0.119-0.696c0-0.246-0.04-0.472-0.119-0.677c-0.076-0.175-0.207-0.363-0.395-0.564v-0.006
		c-0.172-0.167-0.397-0.297-0.678-0.389c-0.264-0.088-0.548-0.132-0.853-0.132h-1.141h-0.39v0.395v2.791v0.389h0.39l0.47,0.005
		h0.313H193.424z"/>
	<path fill="#DFDFDF" d="M200.905,97.08l0.157-0.521c0.598-0.426,1.233-0.904,1.906-1.433s1.242-1.053,1.707-1.57
		c0.459-0.511,0.832-0.998,1.116-1.461s0.427-0.859,0.427-1.186c0-0.263-0.05-0.512-0.15-0.746c-0.088-0.226-0.228-0.439-0.42-0.64
		c-0.189-0.184-0.401-0.325-0.641-0.426c-0.255-0.101-0.506-0.15-0.753-0.15c-0.254,0-0.505,0.05-0.751,0.15
		c-0.239,0.101-0.45,0.242-0.634,0.426h-0.007c-0.196,0.201-0.336,0.415-0.419,0.64c-0.05,0.113-0.088,0.232-0.112,0.358h-1.268
		c0.034-0.289,0.107-0.569,0.219-0.84c0.163-0.393,0.398-0.74,0.703-1.042c0.297-0.297,0.645-0.529,1.041-0.695
		c0.398-0.163,0.809-0.245,1.236-0.245c0.426,0,0.835,0.082,1.229,0.245c0.394,0.167,0.741,0.398,1.042,0.695
		c0.301,0.306,0.533,0.653,0.697,1.042c0.163,0.392,0.244,0.803,0.244,1.229c0,0.473-0.129,0.968-0.389,1.487
		c-0.275,0.552-0.682,1.109-1.217,1.674c-0.276,0.289-0.589,0.594-0.94,0.916c-0.352,0.322-0.68,0.606-0.984,0.853h3.487v1.243
		H200.905z"/>
	<path fill="#DFDFDF" d="M213.011,88.049c0.447,0.238,0.826,0.577,1.135,1.016c0.306,0.426,0.543,0.935,0.715,1.524
		c0.176,0.594,0.264,1.202,0.264,1.826c0,0.627-0.088,1.239-0.264,1.837c-0.176,0.59-0.414,1.096-0.715,1.519
		c-0.305,0.443-0.684,0.783-1.135,1.021c-0.443,0.23-0.922,0.345-1.437,0.345c-0.518,0-0.997-0.115-1.436-0.345
		c-0.444-0.233-0.822-0.575-1.135-1.021c-0.306-0.423-0.544-0.929-0.715-1.519c-0.172-0.581-0.258-1.193-0.258-1.837
		c0-0.636,0.086-1.244,0.258-1.826c0.167-0.589,0.405-1.098,0.715-1.524c0.313-0.447,0.691-0.786,1.135-1.016
		c0.426-0.23,0.905-0.345,1.436-0.345C212.102,87.704,212.581,87.818,213.011,88.049z M212.447,89.177
		c-0.263-0.142-0.556-0.213-0.878-0.213c-0.321,0-0.612,0.071-0.871,0.213c-0.272,0.142-0.502,0.345-0.69,0.608
		c-0.23,0.322-0.41,0.721-0.539,1.197c-0.13,0.469-0.194,0.946-0.194,1.431c0,0.493,0.064,0.969,0.194,1.43
		c0.129,0.481,0.308,0.88,0.539,1.198v0.006c0.206,0.276,0.434,0.479,0.684,0.607c0.263,0.143,0.557,0.214,0.877,0.214
		c0.323,0,0.615-0.071,0.878-0.214c0.259-0.133,0.487-0.336,0.683-0.607v-0.006c0.234-0.33,0.417-0.728,0.546-1.192
		c0.13-0.463,0.194-0.942,0.194-1.436c0-0.485-0.064-0.962-0.194-1.431c-0.129-0.463-0.312-0.863-0.546-1.197
		C212.938,89.522,212.71,89.319,212.447,89.177z"/>
	<path fill="#DFDFDF" d="M218.018,87.547v9.533h-1.255v-7.363v-0.52l-0.495,0.144l-0.521,0.15v-1.298L218.018,87.547z"/>
	<path fill="#DFDFDF" d="M224.877,87.754l-2.96,9.37h-1.311l2.383-7.658l0.157-0.508h-0.533h-3.719v-1.204H224.877z"/>
</g>
</svg>
